<svg xmlns="http://www.w3.org/2000/svg" viewBox="0 0 60 60"><defs><style>.cls-1{fill:#333;}</style></defs><title>2</title><g id="Слой_2" data-name="Слой 2"><g id="Layer_1" data-name="Layer 1"><path class="cls-1" d="M46,23a1,1,0,0,0-.4-.8C44.6,21.45,42,19,42,17a1,1,0,0,0-2,0c0,2.89,2.85,5.54,4,6.47-.22,3.92-2.92,11.16-3.88,13.08S34.46,44,30,44s-9.21-5.65-10.11-7.45c-1-2-3.89-9.77-3.89-13.55V20c4-.1,18.44-.82,25.6-6.19a1,1,0,1,0-1.2-1.6C32.76,17.93,15.18,18,15,18a1,1,0,0,0-1,1v4c0,4.29,3.15,12.53,4.11,14.45C19.32,39.88,24.65,46,30,46s10.68-6.12,11.89-8.55C42.85,35.53,46,27.29,46,23Z"/><path class="cls-1" d="M35,28a1,1,0,0,0,1-1v-.66a.43.43,0,0,1,.11.12A1,1,0,0,0,37,27a1.07,1.07,0,0,0,.46-.11,1,1,0,0,0,.43-1.35,3.48,3.48,0,0,0-5.78,0,1,1,0,0,0,.41,1.31,1,1,0,0,0,1.35-.36.67.67,0,0,1,.13-.14V27A1,1,0,0,0,35,28Z"/><path class="cls-1" d="M25,28a1,1,0,0,0,1-1v-.66a.43.43,0,0,1,.11.12A1,1,0,0,0,27,27a1.07,1.07,0,0,0,.46-.11,1,1,0,0,0,.43-1.35A3.23,3.23,0,0,0,25,24a3.23,3.23,0,0,0-2.89,1.54,1,1,0,0,0,.41,1.31,1,1,0,0,0,1.35-.36.67.67,0,0,1,.13-.14V27A1,1,0,0,0,25,28Z"/><path class="cls-1" d="M30,39a5.32,5.32,0,0,0,3.71-1.29,1,1,0,0,0,0-1.4,1,1,0,0,0-1.41,0A3.43,3.43,0,0,1,30,37a3.42,3.42,0,0,1-2.3-.72,1,1,0,0,0-1.41,1.43A5.35,5.35,0,0,0,30,39Z"/><path class="cls-1" d="M4,27a8.92,8.92,0,0,0,2.24,5.94A8.92,8.92,0,0,0,6,35a9,9,0,0,0,9,9,9.43,9.43,0,0,0,2.25-.28,1,1,0,1,0-.5-1.94A6.88,6.88,0,0,1,15,42a7,7,0,0,1-7-7,6.84,6.84,0,0,1,.31-2,1,1,0,0,0-.25-1A7,7,0,0,1,9,21.3a1,1,0,0,0,.25-1.38,7,7,0,0,1,4.54-10.8,1,1,0,0,0,.68-.47C16.64,4.88,19.21,2,30.11,2c8.4,0,15.11,2.75,16.69,6.85a1,1,0,0,0,.59.58A7,7,0,0,1,52,16a6.92,6.92,0,0,1-1.2,3.92,1,1,0,0,0,.25,1.38A7,7,0,0,1,52,32a1,1,0,0,0-.25,1,7.16,7.16,0,0,1,.3,2,7,7,0,0,1-7,7,6.8,6.8,0,0,1-1.74-.22,1,1,0,0,0-.49,1.94A8.85,8.85,0,0,0,45,44a9,9,0,0,0,9-9,8.92,8.92,0,0,0-.24-2.06A8.92,8.92,0,0,0,56,27a9,9,0,0,0-3.06-6.75A9,9,0,0,0,48.49,7.71C46.34,3,39.21,0,30.11,0,19.54,0,15.81,2.54,12.93,7.25A9,9,0,0,0,6,16a9.1,9.1,0,0,0,1.06,4.25A9,9,0,0,0,4,27Z"/><path class="cls-1" d="M60,58.68l-1-3c-1-3.12-7.32-7.64-16-7.64a1,1,0,0,0-.93.63C42,48.76,38.2,58,30,58s-12-9.28-12.07-9.37A1,1,0,0,0,17,48C4.58,48,1.65,53.88,1.05,55.68l-1,3A1,1,0,0,0,.68,60,1,1,0,0,0,2,59.32l1-3c1-3,5-6.16,13.4-6.31C17.44,52.32,21.69,60,30,60s12.55-7.64,13.65-10c7.5.22,12.69,4.14,13.4,6.27l1,3A1,1,0,0,0,59,60a1.25,1.25,0,0,0,.32,0A1,1,0,0,0,60,58.68Z"/><path class="cls-1" d="M14,33v2a1,1,0,0,0,2,0V33a1,1,0,0,0-2,0Z"/><path class="cls-1" d="M44,33v2a1,1,0,0,0,2,0V33a1,1,0,0,0-2,0Z"/><path class="cls-1" d="M29.29,54.29a1,1,0,1,0,1.42,0A1.05,1.05,0,0,0,29.29,54.29Z"/><path class="cls-1" d="M32.37,53.75a1,1,0,0,0-.29.71,1,1,0,0,0,2,0,1,1,0,0,0-.29-.71A1,1,0,0,0,32.37,53.75Z"/><path class="cls-1" d="M35.08,52.19a1,1,0,0,0-.22.32,1,1,0,0,0-.07.38,1,1,0,0,0,.07.39,1,1,0,0,0,.22.32,1,1,0,0,0,1.71-.71,1,1,0,0,0-.3-.7A1,1,0,0,0,35.08,52.19Z"/><path class="cls-1" d="M37.09,49.79a1,1,0,0,0-.22,1.09,1,1,0,0,0,.22.33,1,1,0,0,0,1.41,0,1,1,0,0,0,0-1.42A1,1,0,0,0,37.09,49.79Z"/><path class="cls-1" d="M39.57,48.27a1,1,0,0,0,.22-.32,1.07,1.07,0,0,0,.07-.39,1,1,0,0,0-.29-.71,1,1,0,0,0-1.09-.21,1,1,0,0,0-.32.21,1,1,0,0,0-.3.71,1.09,1.09,0,0,0,.08.39.87.87,0,0,0,.22.32,1,1,0,0,0,.7.29A1,1,0,0,0,39.57,48.27Z"/><path class="cls-1" d="M27.3,53.53l-.18-.05a1,1,0,0,0-.58.05,1.46,1.46,0,0,0-.33.22,1,1,0,0,0,0,1.42,1.15,1.15,0,0,0,.33.21,1,1,0,0,0,.38.08l.2,0,.18-.06a.61.61,0,0,0,.18-.09l.15-.12a1,1,0,0,0,0-1.42,1.58,1.58,0,0,0-.15-.12Z"/><path class="cls-1" d="M23.51,52.19a1,1,0,1,0,1.71.71,1,1,0,0,0-.3-.71A1,1,0,0,0,23.51,52.19Z"/><path class="cls-1" d="M21.82,51.42a.85.85,0,0,0,.39.08,1,1,0,0,0,.7-1.71,1,1,0,0,0-1.09-.21,1,1,0,0,0-.32.21,1,1,0,0,0-.22.33,1,1,0,0,0,.54,1.3Z"/><path class="cls-1" d="M22.14,47.56a1,1,0,0,0-.08-.38,1.07,1.07,0,0,0-.54-.54,1,1,0,0,0-.77,0,.87.87,0,0,0-.32.22,1,1,0,0,0-.22.32,1,1,0,0,0,.22,1.09,1,1,0,0,0,.32.22,1,1,0,0,0,.39.07,1,1,0,0,0,.7-.29A1,1,0,0,0,22.14,47.56Z"/></g></g></svg>