<svg xmlns="http://www.w3.org/2000/svg" viewBox="0 0 56 59.98"><defs><style>.cls-1{fill:#333;}</style></defs><title>1</title><g id="Слой_2" data-name="Слой 2"><g id="Layer_1" data-name="Layer 1"><path class="cls-1" d="M47,0H9A9,9,0,0,0,0,9H0a9,9,0,0,0,4.5,7.76,1,1,0,0,0,1.37-.36A1,1,0,0,0,5.5,15,7,7,0,0,1,9,2H47a7,7,0,0,1,7,7V51a2.86,2.86,0,0,1-.41,1.47A1,1,0,0,0,54,53.84a1,1,0,0,0,1.37-.36A5,5,0,0,0,56,51V9A9,9,0,0,0,47,0Z"/><path class="cls-1" d="M17,16h4a1,1,0,0,0,0-2H17a1,1,0,0,0,0,2Z"/><path class="cls-1" d="M39,16a1,1,0,0,0,0-2H37a1,1,0,0,0,0,2Z"/><path class="cls-1" d="M33,14H25a1,1,0,0,0,0,2h8a1,1,0,0,0,0-2Z"/><path class="cls-1" d="M17,28h6a1,1,0,0,0,0-2H17a1,1,0,0,0,0,2Z"/><path class="cls-1" d="M40,27a1,1,0,0,0,1,1h6a1,1,0,0,0,0-2H41A1,1,0,0,0,40,27Z"/><path class="cls-1" d="M34,21a1,1,0,0,0,1,1H45a1,1,0,0,0,0-2H35A1,1,0,0,0,34,21Z"/><path class="cls-1" d="M27,26a1,1,0,0,0,0,2H37a1,1,0,0,0,0-2Z"/><path class="cls-1" d="M17,22H31a1,1,0,0,0,0-2H17a1,1,0,0,0,0,2Z"/><path class="cls-1" d="M17,34H29a1,1,0,1,0,0-2H17a1,1,0,0,0,0,2Z"/><path class="cls-1" d="M44,33a1,1,0,0,0-1-1H33a1,1,0,0,0,0,2H43A1,1,0,0,0,44,33Z"/><path class="cls-1" d="M50,46a6,6,0,1,0-6,6A6,6,0,0,0,50,46Zm-6,4a4,4,0,1,1,4-4A4,4,0,0,1,44,50Z"/><path class="cls-1" d="M50.63,51.33A1,1,0,0,0,49.26,51a1,1,0,0,0-.36,1.36l2.16,3.75-.62,0a1,1,0,0,0-.77.45l-.34.51-2.15-3.71a1,1,0,0,0-1.73,1l2.95,5.12a1,1,0,0,0,.84.5h0a1,1,0,0,0,.83-.45l1-1.45L52.79,58a1,1,0,0,0,.81-1.49Z"/><path class="cls-1" d="M42.2,53a1,1,0,0,0-1.37.36l-2.15,3.74-.35-.52a1,1,0,0,0-.77-.45l-.62,0,2.19-3.78a1,1,0,0,0-.37-1.37,1,1,0,0,0-1.36.37l-3,5.19a1,1,0,0,0,0,1,1,1,0,0,0,.82.52l1.73.11,1,1.45a1,1,0,0,0,.83.45h0a1,1,0,0,0,.84-.5l3-5.14A1,1,0,0,0,42.2,53Z"/><path class="cls-1" d="M17.11,46.42a1,1,0,0,0,1.34.45,1,1,0,0,0,.44-1.34c-1-2-1.21-3.76-.59-4.75A1.85,1.85,0,0,1,20,40a.81.81,0,0,1,.77.32c.74,1.07,0,4.35-.71,6.33a1,1,0,0,0,1.65,1c.42-.42.89-.85,1.29-1.19V47a1,1,0,0,0,1.71.7,11.91,11.91,0,0,1,1.43-1.22l0,.07a1,1,0,0,0,0,1A1,1,0,0,0,27,48h4a1,1,0,0,0,0-2H28.4a1.94,1.94,0,0,0-.18-1.35A1.38,1.38,0,0,0,27,44a3.87,3.87,0,0,0-2,.84,1.15,1.15,0,0,0-.7-1c-.27-.11-.61-.25-1.45.25.33-1.72.43-3.71-.43-5A2.77,2.77,0,0,0,20,38a3.8,3.8,0,0,0-3.4,1.75C15.6,41.34,15.78,43.78,17.11,46.42Z"/><path class="cls-1" d="M32,54H13a3,3,0,0,1-3-3V5A1,1,0,0,0,9,4,5,5,0,0,0,4,9,1,1,0,0,0,6,9,3,3,0,0,1,8,6.15V51a5,5,0,0,0,5,5H32a1,1,0,0,0,0-2Z"/></g></g></svg>