<svg xmlns="http://www.w3.org/2000/svg" viewBox="0 0 60 52"><defs><style>.cls-1{fill:#333;}</style></defs><title>3</title><g id="Слой_2" data-name="Слой 2"><g id="Layer_1" data-name="Layer 1"><path class="cls-1" d="M39,0H5A5,5,0,0,0,0,5V37a5,5,0,0,0,5,5,1,1,0,0,0,0-2,3,3,0,0,1-3-3V5A3,3,0,0,1,5,2H38V30H5a1,1,0,0,0,0,2H38v8H21.92a7,7,0,1,0,0,2H39a1,1,0,0,0,1-1V1A1,1,0,0,0,39,0ZM15,46a5,5,0,1,1,5-5A5,5,0,0,1,15,46Z"/><path class="cls-1" d="M58.71,25.29,56,22.55,55,11a5,5,0,0,0-5-5H43a1,1,0,0,0,0,2h7a3.05,3.05,0,0,1,3,3.08L53.91,22H50.62l1.27-2.55a1,1,0,1,0-1.78-.9L48.38,22H43a1,1,0,0,0,0,2H54.59l2.7,2.71A3.91,3.91,0,0,1,58,29v1H57a1,1,0,0,0,0,2h1v8H55.92a7,7,0,1,0,0,2H59a1,1,0,0,0,1-1V29A5.83,5.83,0,0,0,58.71,25.29ZM49,46a5,5,0,1,1,5-5A5,5,0,0,1,49,46Z"/><path class="cls-1" d="M49,38a3,3,0,1,0,3,3A3,3,0,0,0,49,38Zm0,4a1,1,0,1,1,1-1A1,1,0,0,1,49,42Z"/><path class="cls-1" d="M15,38a3,3,0,1,0,3,3A3,3,0,0,0,15,38Zm0,4a1,1,0,1,1,1-1A1,1,0,0,1,15,42Z"/><path class="cls-1" d="M15,50H1a1,1,0,0,0,0,2H15a1,1,0,0,0,0-2Z"/><path class="cls-1" d="M31,50H21a1,1,0,0,0,0,2H31a1,1,0,0,0,0-2Z"/><path class="cls-1" d="M59,50H43a1,1,0,0,0,0,2H59a1,1,0,0,0,0-2Z"/><path class="cls-1" d="M39,50H37a1,1,0,0,0,0,2h2a1,1,0,0,0,0-2Z"/></g></g></svg>