<svg xmlns="http://www.w3.org/2000/svg" viewBox="0 0 60 44"><defs><style>.cls-1{fill:#333;}</style></defs><title>1</title><g id="Слой_2" data-name="Слой 2"><g id="Layer_1" data-name="Layer 1"><path class="cls-1" d="M55,0H5A5,5,0,0,0,0,5v6a1,1,0,0,0,1,1H55a1,1,0,0,0,0-2H2V5A3,3,0,0,1,5,2H55a3,3,0,0,1,3,3V15a1,1,0,0,0,2,0V5A5,5,0,0,0,55,0Z"/><path class="cls-1" d="M59,18H5a1,1,0,0,0,0,2H58V39a3,3,0,0,1-3,3H5a3,3,0,0,1-3-3V17a1,1,0,0,0-2,0V39a5,5,0,0,0,5,5H55a5,5,0,0,0,5-5V19A1,1,0,0,0,59,18Z"/><path class="cls-1" d="M9,30H23a1,1,0,0,0,0-2H9a1,1,0,0,0,0,2Z"/><path class="cls-1" d="M35,30a1,1,0,0,0,0-2H27a1,1,0,0,0,0,2Z"/><path class="cls-1" d="M9,34H27a1,1,0,0,0,0-2H9a1,1,0,0,0,0,2Z"/></g></g></svg>