<?xml version="1.0" standalone="no"?>
<!DOCTYPE svg PUBLIC "-//W3C//DTD SVG 20010904//EN"
 "http://www.w3.org/TR/2001/REC-SVG-20010904/DTD/svg10.dtd">
<svg version="1.0" xmlns="http://www.w3.org/2000/svg"
 width="188.000000pt" height="188.000000pt" viewBox="0 0 188.000000 188.000000"
 preserveAspectRatio="xMidYMid meet">

<g transform="translate(0.000000,188.000000) scale(0.100000,-0.100000)"
fill="#000000" stroke="none">
<path d="M12 1868 c-19 -19 -17 -1476 2 -1522 23 -54 78 -90 141 -90 58 -1 91
17 129 68 21 27 21 41 26 606 l5 578 24 26 c13 14 36 28 52 31 32 7 83 -16 99
-44 6 -13 10 -226 10 -615 l0 -596 -91 0 -90 0 3 -27 c3 -28 3 -28 91 -31 l87
-3 0 -112 c0 -75 4 -117 12 -125 17 -17 1339 -17 1356 0 9 9 12 190 12 751 0
822 3 780 -68 835 l-35 27 -586 0 -586 0 0 -25 0 -25 578 -5 579 -5 29 -33 29
-32 0 -720 0 -720 -630 0 -630 0 0 729 0 728 -22 33 c-38 55 -73 75 -132 75
-58 -1 -99 -24 -132 -72 -18 -26 -19 -61 -24 -608 -3 -319 -9 -586 -13 -593
-5 -6 -22 -19 -38 -28 -40 -20 -82 -10 -114 28 l-25 30 0 719 0 719 630 0 630
0 0 -59 c0 -62 17 -84 46 -60 18 15 19 150 2 167 -17 17 -1339 17 -1356 0z"/>
<path d="M756 1234 c-15 -39 8 -44 214 -44 163 0 200 3 210 15 7 8 10 22 6 30
-4 13 -37 15 -215 15 -184 0 -210 -2 -215 -16z"/>
<path d="M1262 1223 l3 -28 115 0 115 0 0 25 0 25 -118 3 -118 3 3 -28z"/>
<path d="M756 1043 c-16 -41 8 -43 440 -43 352 0 413 2 424 15 7 8 10 22 6 30
-5 13 -61 15 -435 15 -397 0 -429 -1 -435 -17z"/>
<path d="M760 736 c-19 -24 5 -48 44 -44 26 2 31 7 31 28 0 21 -5 26 -31 28
-19 2 -36 -3 -44 -12z"/>
<path d="M914 735 c-3 -8 -3 -22 0 -30 5 -13 27 -15 138 -13 l133 3 0 25 0 25
-133 3 c-111 2 -133 0 -138 -13z"/>
<path d="M1383 704 c-9 -4 -13 -37 -13 -115 0 -102 -1 -109 -20 -109 -13 0
-20 -7 -20 -20 0 -13 7 -20 20 -20 18 0 20 -7 20 -60 l0 -60 30 0 30 0 0 60
c0 59 1 60 28 60 50 0 100 20 126 51 48 56 43 140 -10 190 -22 20 -37 24 -102
26 -42 1 -83 0 -89 -3z m152 -59 c25 -24 34 -81 19 -120 -9 -22 -57 -45 -94
-45 l-30 0 0 95 0 95 40 0 c30 0 47 -7 65 -25z"/>
<path d="M756 544 c-10 -25 14 -45 48 -42 25 2 32 8 34 31 3 25 1 27 -36 27
-28 0 -42 -5 -46 -16z"/>
<path d="M914 545 c-4 -8 -1 -22 6 -30 10 -12 41 -15 159 -15 80 0 152 4 159
9 8 5 12 17 10 27 -3 18 -16 19 -166 22 -139 2 -163 0 -168 -13z"/>
<path d="M756 353 c-5 -11 -1 -22 10 -30 34 -25 74 -12 74 23 0 21 -5 24 -39
24 -28 0 -41 -5 -45 -17z"/>
<path d="M913 354 c-13 -34 24 -44 158 -44 100 0 129 3 139 15 7 8 10 22 6 30
-4 12 -30 15 -151 15 -126 0 -146 -2 -152 -16z"/>
</g>
</svg>
