<svg xmlns="http://www.w3.org/2000/svg" viewBox="0 0 60 59.99"><defs><style>.cls-1{fill:#333;}</style></defs><title>3</title><g id="Слой_2" data-name="Слой 2"><g id="Layer_1" data-name="Layer 1"><path class="cls-1" d="M57,44a1,1,0,0,0-1,1V55a3,3,0,0,1-3,3H5a3,3,0,0,1-3-3V15c0-1.81,1.69-3.1,3.29-3.54l30.08-9C36,2.18,38,1.65,39,2.38A3,3,0,0,1,40,5a1,1,0,1,0,2,0c0-2-.62-3.44-1.84-4.26C38-.73,35,.43,34.71.54l-30,9C2.38,10.17,0,12.11,0,15V55a5,5,0,0,0,5,5H53a5,5,0,0,0,5-5V45A1,1,0,0,0,57,44Z"/><path class="cls-1" d="M58,32V19a5,5,0,0,0-5-5H15.59L47.21,8a2.61,2.61,0,0,1,1.92.41A3.25,3.25,0,0,1,50,11a1,1,0,1,0,2,0,5.06,5.06,0,0,0-1.63-4.17A4.62,4.62,0,0,0,46.81,6l-42,8A1,1,0,0,0,4,15.09,1,1,0,0,0,5,16H53a3,3,0,0,1,3,3V32H36a2,2,0,0,0-2,2v6a2,2,0,0,0,2,2H58a2,2,0,0,0,2-2V34A2,2,0,0,0,58,32Zm0,8H36V34H58Z"/><path class="cls-1" d="M39,36h0a1,1,0,1,0,1,1A1,1,0,0,0,39,36Z"/><path class="cls-1" d="M51,20a1,1,0,0,0,0-2H49a1,1,0,0,0,0,2Z"/><path class="cls-1" d="M45,20a1,1,0,0,0,0-2H43a1,1,0,0,0,0,2Z"/><path class="cls-1" d="M39,20a1,1,0,0,0,0-2H37a1,1,0,0,0,0,2Z"/><path class="cls-1" d="M31,20h2a1,1,0,0,0,0-2H31a1,1,0,0,0,0,2Z"/><path class="cls-1" d="M25,20h2a1,1,0,0,0,0-2H25a1,1,0,0,0,0,2Z"/><path class="cls-1" d="M19,20h2a1,1,0,0,0,0-2H19a1,1,0,0,0,0,2Z"/><path class="cls-1" d="M13,20h2a1,1,0,0,0,0-2H13a1,1,0,0,0,0,2Z"/><path class="cls-1" d="M7,20H9a1,1,0,0,0,0-2H7a1,1,0,0,0,0,2Z"/><path class="cls-1" d="M51,56a1,1,0,0,0,0-2H49a1,1,0,0,0,0,2Z"/><path class="cls-1" d="M45,56a1,1,0,0,0,0-2H43a1,1,0,0,0,0,2Z"/><path class="cls-1" d="M39,56a1,1,0,0,0,0-2H37a1,1,0,0,0,0,2Z"/><path class="cls-1" d="M31,56h2a1,1,0,0,0,0-2H31a1,1,0,0,0,0,2Z"/><path class="cls-1" d="M25,56h2a1,1,0,1,0,0-2H25a1,1,0,0,0,0,2Z"/><path class="cls-1" d="M19,56h2a1,1,0,1,0,0-2H19a1,1,0,0,0,0,2Z"/><path class="cls-1" d="M13,56h2a1,1,0,1,0,0-2H13a1,1,0,0,0,0,2Z"/><path class="cls-1" d="M7,56H9a1,1,0,0,0,0-2H7a1,1,0,0,0,0,2Z"/></g></g></svg>