<svg xmlns="http://www.w3.org/2000/svg" viewBox="0 0 41 35.5"><defs><style>.cls-1{fill:#e5c8b5;}</style></defs><title>2</title><g id="Слой_2" data-name="Слой 2"><g id="Режим_изоляции" data-name="Режим изоляции"><path class="cls-1" d="M40.15,17.06l-2-2L37.5,6.82A3.31,3.31,0,0,0,34.2,3.5H26.5A.5.5,0,0,0,26,4V27.5H14.74a4.7,4.7,0,1,0,0,1H26.5A.5.5,0,0,0,27,28V4.5h7.2a2.35,2.35,0,0,1,2.3,2.36L37.17,15H34.36l1.07-2.18a.5.5,0,0,0-.23-.67.51.51,0,0,0-.67.23L33.24,15H29.5a.5.5,0,0,0,0,1h8a.41.41,0,0,0,.16,0l1.78,1.79A2.9,2.9,0,0,1,40,19.53v1H39a.5.5,0,0,0,0,1h1v6H38.19a4.7,4.7,0,1,0,0,1H40.5A.5.5,0,0,0,41,28V19.53A3.85,3.85,0,0,0,40.15,17.06Zm-30,14.64a3.7,3.7,0,1,1,3.59-4.12.48.48,0,0,0,0,.84A3.65,3.65,0,0,1,10.16,31.7Zm23.44,0a3.7,3.7,0,1,1,3.6-4.09.48.48,0,0,0,0,.78A3.64,3.64,0,0,1,33.6,31.7Z"/><path class="cls-1" d="M33.6,26.1A1.9,1.9,0,1,0,35.48,28,1.89,1.89,0,0,0,33.6,26.1Zm0,2.8a.9.9,0,1,1,.88-.9A.89.89,0,0,1,33.6,28.9Z"/><path class="cls-1" d="M10.16,26.1A1.9,1.9,0,1,0,12,28,1.89,1.89,0,0,0,10.16,26.1Zm0,2.8A.9.9,0,1,1,11,28,.89.89,0,0,1,10.16,28.9Z"/><path class="cls-1" d="M3.26,28.5a.5.5,0,0,0,0-1A2.25,2.25,0,0,1,1,25.2V21.5H24a.5.5,0,0,0,0-1H.5A.5.5,0,0,0,0,21v4.2A3.24,3.24,0,0,0,3.26,28.5Z"/><path class="cls-1" d="M10,34.5H.5a.5.5,0,0,0,0,1H10a.5.5,0,0,0,0-1Z"/><path class="cls-1" d="M21,34.5H14.5a.5.5,0,0,0,0,1H21a.5.5,0,0,0,0-1Z"/><path class="cls-1" d="M40.5,34.5h-11a.5.5,0,0,0,0,1h11a.5.5,0,0,0,0-1Z"/><path class="cls-1" d="M26.5,34.5h-1a.5.5,0,0,0,0,1h1a.5.5,0,0,0,0-1Z"/><path class="cls-1" d="M2,18.5H22.54a2,2,0,0,0,2-2V2a2,2,0,0,0-2-2H2A2,2,0,0,0,0,2V16.54A2,2,0,0,0,2,18.5ZM1,2A1,1,0,0,1,2,1H22.54a1,1,0,0,1,1,1V16.54a1,1,0,0,1-1,1H2a1,1,0,0,1-1-1Z"/></g></g></svg>