<svg xmlns="http://www.w3.org/2000/svg" viewBox="0 0 41 41"><defs><style>.cls-1{fill:#e5c8b5;}</style></defs><title>2</title><g id="Слой_2" data-name="Слой 2"><g id="Layer_1" data-name="Layer 1"><path class="cls-1" d="M37.74,0H3.26A3.26,3.26,0,0,0,0,3.26V21a.5.5,0,0,0,.5.5A.5.5,0,0,0,1,21V3.26A2.26,2.26,0,0,1,3.26,1H37.74A2.26,2.26,0,0,1,40,3.26v25a2.26,2.26,0,0,1-2.26,2.26H3.26A2.26,2.26,0,0,1,1,28.24V24.5H37.5a.5.5,0,0,0,0-1H.5A.5.5,0,0,0,0,24v4.24A3.26,3.26,0,0,0,3.26,31.5H37.74A3.26,3.26,0,0,0,41,28.24v-25A3.26,3.26,0,0,0,37.74,0Z"/><path class="cls-1" d="M19.31,27.4a1.19,1.19,0,1,0,1.19-1.19A1.19,1.19,0,0,0,19.31,27.4Zm1.38,0c0,.21-.38.21-.38,0a.19.19,0,1,1,.38,0Z"/><path class="cls-1" d="M26.76,37H24.5V33a.5.5,0,0,0-1,0v4.5a.5.5,0,0,0,.5.5h2.76A2.62,2.62,0,0,1,29,40H12.15a2.6,2.6,0,0,1,2.19-2H21a.5.5,0,0,0,0-1H17.5V33.5a.5.5,0,0,0-1,0V37H14.34a3.61,3.61,0,0,0-3.25,3.5.5.5,0,0,0,.5.5H29.52a.5.5,0,0,0,.5-.5A3.62,3.62,0,0,0,26.76,37Z"/><path class="cls-1" d="M23,13.54a.52.52,0,0,0,.37.19.46.46,0,0,0,.23-.06.5.5,0,0,0,.22-.67,1.4,1.4,0,0,0-1.26-.68,1.42,1.42,0,0,0-1.27.68.49.49,0,0,0,.2.65.5.5,0,0,0,.54,0,.49.49,0,0,0,1-.08Z"/><path class="cls-1" d="M19.27,13.73a.46.46,0,0,0,.23-.06.5.5,0,0,0,.22-.67,1.42,1.42,0,0,0-1.27-.68,1.4,1.4,0,0,0-1.26.68.49.49,0,0,0,.2.65.5.5,0,0,0,.62-.11.49.49,0,0,0,.49.46.5.5,0,0,0,.48-.39A.45.45,0,0,0,19.27,13.73Z"/><path class="cls-1" d="M20.5,18.64a2.24,2.24,0,0,0,1.58-.56.5.5,0,0,0-.7-.71,1.57,1.57,0,0,1-1.76,0,.5.5,0,0,0-.7,0,.5.5,0,0,0,0,.71A2.24,2.24,0,0,0,20.5,18.64Z"/><path class="cls-1" d="M10.68,16.09a3.77,3.77,0,0,0,3.68,4.59,3.81,3.81,0,0,0,1-.12.5.5,0,1,0-.25-1,2.77,2.77,0,0,1-3.47-2.68,2.79,2.79,0,0,1,.12-.81.49.49,0,0,0-.12-.5,2.75,2.75,0,0,1-.82-2,2.78,2.78,0,0,1,1.17-2.26.51.51,0,0,0,.13-.69,2.7,2.7,0,0,1-.48-1.55,2.78,2.78,0,0,1,2.27-2.73.45.45,0,0,0,.34-.24c.9-1.51,1.93-2.67,6.34-2.67,3.41,0,6.11,1.1,6.75,2.74a.49.49,0,0,0,.29.29,2.8,2.8,0,0,1,1.83,2.61,2.7,2.7,0,0,1-.48,1.55.51.51,0,0,0,.13.69,2.78,2.78,0,0,1,1.17,2.26,2.75,2.75,0,0,1-.82,2,.49.49,0,0,0-.12.5,2.77,2.77,0,0,1-2.65,3.58A3.1,3.1,0,0,1,26,19.6a.5.5,0,0,0-.61.36.49.49,0,0,0,.36.6,3.67,3.67,0,0,0,.94.12,3.77,3.77,0,0,0,3.68-4.59,3.71,3.71,0,0,0,.91-2.45A3.81,3.81,0,0,0,30,10.85a3.77,3.77,0,0,0-1.87-5.17c-.91-1.94-3.85-3.18-7.59-3.18-4.34,0-5.89,1-7.08,3A3.77,3.77,0,0,0,11,10.85a3.81,3.81,0,0,0-1.23,2.79A3.71,3.71,0,0,0,10.68,16.09Z"/><path class="cls-1" d="M14,16v1a.5.5,0,0,0,1,0v-.76c.28.78.55,1.42.69,1.71.39.78,2.53,3.55,5,3.55,2.23,0,4.44-2.54,4.94-3.55.1-.19.25-.54.42-1v0a.5.5,0,0,0,1,0V16a.5.5,0,0,0-.48-.5,12.76,12.76,0,0,0,.75-3.5.48.48,0,0,0-.2-.4c-.4-.3-1.43-1.26-1.43-2a.5.5,0,0,0-.5-.5.5.5,0,0,0-.5.5,4.09,4.09,0,0,0,1.62,2.68,20.11,20.11,0,0,1-1.57,5.27c-.36.73-2.27,3-4.05,3s-3.69-2.27-4.06-3A18.93,18.93,0,0,1,15,12V10.86c1.75,0,7.54-.38,10.44-2.55a.51.51,0,0,0,.1-.7.5.5,0,0,0-.7-.1C21.74,9.83,14.57,9.86,14.5,9.86a.5.5,0,0,0-.5.5V12a13.24,13.24,0,0,0,.78,3.6.45.45,0,0,0-.28-.1A.5.5,0,0,0,14,16Z"/></g></g></svg>