<svg xmlns="http://www.w3.org/2000/svg" viewBox="0 0 38.49 41"><defs><style>.cls-1{fill:#e5c8b5;}</style></defs><title>3</title><g id="Слой_2" data-name="Слой 2"><g id="Режим_изоляции" data-name="Режим изоляции"><path class="cls-1" d="M32.48,0H6.05A6,6,0,0,0,0,6H0a6,6,0,0,0,3,5.19A.51.51,0,0,0,3.71,11a.49.49,0,0,0-.18-.68A5,5,0,0,1,6.05,1H32.48a5,5,0,0,1,5,5V35a2.18,2.18,0,0,1-.3,1.11.49.49,0,0,0,.17.69.59.59,0,0,0,.25.07.51.51,0,0,0,.44-.25A3.23,3.23,0,0,0,38.49,35V6A6,6,0,0,0,32.48,0Z"/><path class="cls-1" d="M11.5,10.5H14a.5.5,0,0,0,0-1H11.5a.5.5,0,0,0,0,1Z"/><path class="cls-1" d="M26.5,10.5a.5.5,0,0,0,0-1H25a.5.5,0,0,0,0,1Z"/><path class="cls-1" d="M22.5,9.5H17a.5.5,0,0,0,0,1h5.5a.5.5,0,0,0,0-1Z"/><path class="cls-1" d="M11.5,19h4a.51.51,0,0,0,.5-.5.5.5,0,0,0-.5-.5h-4a.5.5,0,0,0-.5.5A.5.5,0,0,0,11.5,19Z"/><path class="cls-1" d="M27.5,18.5a.5.5,0,0,0,.5.5h4a.51.51,0,0,0,.5-.5A.5.5,0,0,0,32,18H28A.5.5,0,0,0,27.5,18.5Z"/><path class="cls-1" d="M23.5,14.5a.5.5,0,0,0,.5.5h6.5a.51.51,0,0,0,.5-.5.5.5,0,0,0-.5-.5H24A.5.5,0,0,0,23.5,14.5Z"/><path class="cls-1" d="M18,18.5a.5.5,0,0,0,.5.5H25a.51.51,0,0,0,.5-.5A.5.5,0,0,0,25,18H18.5A.5.5,0,0,0,18,18.5Z"/><path class="cls-1" d="M11.5,15H21a.51.51,0,0,0,.5-.5A.5.5,0,0,0,21,14H11.5a.5.5,0,0,0-.5.5A.5.5,0,0,0,11.5,15Z"/><path class="cls-1" d="M11.5,23h8a.51.51,0,0,0,.5-.5.5.5,0,0,0-.5-.5h-8a.5.5,0,0,0-.5.5A.5.5,0,0,0,11.5,23Z"/><path class="cls-1" d="M30,22.5a.5.5,0,0,0-.5-.5h-7a.5.5,0,0,0-.5.5.5.5,0,0,0,.5.5h7A.51.51,0,0,0,30,22.5Z"/><path class="cls-1" d="M34,31.53A3.95,3.95,0,1,0,30,35.48,3.95,3.95,0,0,0,34,31.53ZM30,34.48A3,3,0,1,1,33,31.53,2.95,2.95,0,0,1,30,34.48Z"/><path class="cls-1" d="M34.44,35.32a.5.5,0,0,0-.86.5l1.64,2.85-.73,0a.52.52,0,0,0-.39.23l-.4.61-1.63-2.83a.51.51,0,0,0-.69-.18.49.49,0,0,0-.18.68l2,3.53a.49.49,0,0,0,.41.25h0a.51.51,0,0,0,.42-.22l.71-1.08,1.29-.08a.5.5,0,0,0,.4-.75Z"/><path class="cls-1" d="M28.7,36.53a.51.51,0,0,0-.69.18l-1.64,2.84-.4-.61a.52.52,0,0,0-.39-.23l-.73,0,1.66-2.88a.5.5,0,1,0-.86-.5l-2.07,3.58a.5.5,0,0,0,.4.75l1.29.08L26,40.78a.51.51,0,0,0,.42.22h0a.49.49,0,0,0,.41-.25l2.05-3.54A.5.5,0,0,0,28.7,36.53Z"/><path class="cls-1" d="M11.41,31.53a.49.49,0,0,0,.67.22.5.5,0,0,0,.23-.67c-.72-1.42-.87-2.72-.41-3.46A1.46,1.46,0,0,1,13.24,27a.74.74,0,0,1,.68.3c.59.84,0,3.23-.46,4.54a.51.51,0,0,0,.2.6.5.5,0,0,0,.62-.07,13.45,13.45,0,0,1,1.22-1.09V32a.5.5,0,0,0,.31.46.51.51,0,0,0,.54-.11,7,7,0,0,1,1.49-1.16,3,3,0,0,1-.22.58.5.5,0,0,0,0,.49.5.5,0,0,0,.43.24H21a.51.51,0,0,0,.5-.5.5.5,0,0,0-.5-.5H18.8a1.39,1.39,0,0,0-.05-1,.8.8,0,0,0-.68-.35,3,3,0,0,0-1.57.76v-.26a.62.62,0,0,0-.37-.6c-.17-.06-.43-.17-1.22.42.29-1.23.46-2.82-.16-3.73A1.77,1.77,0,0,0,13.24,26a2.45,2.45,0,0,0-2.19,1.11C10.4,28.15,10.53,29.77,11.41,31.53Z"/><path class="cls-1" d="M22,37H8.76A2.26,2.26,0,0,1,6.5,34.74V3A.5.5,0,0,0,6,2.5,3.26,3.26,0,0,0,2.74,5.76a.5.5,0,0,0,1,0A2.26,2.26,0,0,1,5.5,3.56V34.74A3.27,3.27,0,0,0,8.76,38H22a.51.51,0,0,0,.5-.5A.5.5,0,0,0,22,37Z"/></g></g></svg>